# xmcd
#
# Track frame offsets: 
#        150
#        15167
#        27492
#        41100
#        54692
#        68687
#        81342
#        95037
#        109857
#        124177
#        138600
#        152005
#        165907
#        179260
#        193600
#        208572
#        222792
#        239382
#        253835
#        266565
#
# Disc length: 3713 seconds
#
# Revision: 5
# Processed by: cddbd v1.5.2PL0 Copyright (c) Steve Scherf et al.
# Submitted via: ExactAudioCopy v1.0b3
#
DISCID=1d0e7f14
DTITLE=Charley Patton - Complete Recordings, 1929-1934
DYEAR=2002
DGENRE=Blues
TTITLE0=Hammer Blues (take 1)
TTITLE1=I Shall Not Be Moved
TTITLE2=High Water Everywhere, Part 1
TTITLE3=High Water Everywhere, Part 2
TTITLE4=I Shall Not Be Moved
TTITLE5=Rattle Snake Blues
TTITLE6=Going to Move to Alabama
TTITLE7=Hammer Blues (take 2)
TTITLE8=Joe Kirby
TTITLE9=Frankie and Albert
TTITLE10=Magnolia Blues
TTITLE11=Devil Sent the Rain Blues
TTITLE12=Runnin' Wild Blues
TTITLE13=Some Happy Day
TTITLE14=Mean Black Moan
TTITLE15=Green River Blues
TTITLE16=Edith North Johnson - That's My Man (possibly ft Charley Patt
TTITLE16=on on guitar)
TTITLE17=Edith North Johnson - Honey Dripper Blues, No. 2
TTITLE18=Edith North Johnson - Eight Hour Woman
TTITLE19=Edith North Johnson - Nickel's Worth of Liver Blues, No. 2
EXTD=JSP\n
EXTT0=
EXTT1=
EXTT2=
EXTT3=
EXTT4=
EXTT5=
EXTT6=
EXTT7=
EXTT8=
EXTT9=
EXTT10=
EXTT11=
EXTT12=
EXTT13=
EXTT14=
EXTT15=
EXTT16=
EXTT17=
EXTT18=
EXTT19=
PLAYORDER=
